<?xml version="1.0" standalone="no"?><svg xmlns:xlink="http://www.w3.org/1999/xlink" xmlns="http://www.w3.org/2000/svg" viewBox="0 0 1000 1666.7148376157309" preserveAspectRatio="xMaxYMax slice"><g transform="scale(4.817094906403846)"><rect x="0" y="0" width="207.6" height="346" fill="#fcfcfc"/><rect x="0" y="11.533333333333333" width="11.533333333333333" height="11.533333333333333" fill="#fcfcfc"/><rect x="11.533333333333333" y="11.533333333333333" width="11.533333333333333" height="11.533333333333333" fill="#fcfcfc"/><rect x="92.26666666666667" y="11.533333333333333" width="11.533333333333333" height="11.533333333333333" fill="#fcfcfc"/><rect x="46.13333333333333" y="23.066666666666666" width="11.533333333333333" height="11.533333333333333" fill="#fcfcfc"/><g transform="translate(46.13,28.83) scale(0.2885) rotate(0)"><path d="M10 5L5 0L0 5L5 10L0 15L5 20L10 15L15 20L20 15L15 10L20 5L15 0L10 5Z" fill="#b3c0f6"/></g><g transform="translate(51.9,28.83) scale(0.2885) rotate(0)"><path d="M10 5L5 0L0 5L5 10L0 15L5 20L10 15L15 20L20 15L15 10L20 5L15 0L10 5Z" fill="#d1d9f8"/></g><rect x="80.73333333333333" y="23.066666666666666" width="11.533333333333333" height="11.533333333333333" fill="#fcfcfc"/><rect x="126.86666666666666" y="23.066666666666666" width="11.533333333333333" height="11.533333333333333" fill="#fcfcfc"/><rect x="103.8" y="46.13333333333333" width="11.533333333333333" height="11.533333333333333" fill="#fcfcfc"/><circle cx="106.685" cy="49.015" r="2.885" fill="#a0b1f4"/><g transform="translate(109.57,46.13) scale(0.2885) rotate(0)"><path d="M10 5L5 0L0 5L5 10L0 15L5 20L10 15L15 20L20 15L15 10L20 5L15 0L10 5Z" fill="#feebc6"/></g><g transform="translate(109.57,51.9) scale(0.2885) rotate(0)"><path d="M10 5L5 0L0 5L5 10L0 15L5 20L10 15L15 20L20 15L15 10L20 5L15 0L10 5Z" fill="#e1e6fa"/></g><rect x="115.33333333333333" y="46.13333333333333" width="11.533333333333333" height="11.533333333333333" fill="#fcfcfc"/><g transform="translate(121.1,46.13) scale(0.2885) rotate(0)"><path d="M10 5L5 0L0 5L5 10L0 15L5 20L10 15L15 20L20 15L15 10L20 5L15 0L10 5Z" fill="#eaeefb"/></g><rect x="138.4" y="57.666666666666664" width="11.533333333333333" height="11.533333333333333" fill="#fcfcfc"/><rect x="69.2" y="69.2" width="11.533333333333333" height="11.533333333333333" fill="#fcfcfc"/><rect x="115.33333333333333" y="69.2" width="11.533333333333333" height="11.533333333333333" fill="#fcfcfc"/><rect x="149.93333333333334" y="69.2" width="11.533333333333333" height="11.533333333333333" fill="#fcfcfc"/><rect x="57.666666666666664" y="80.73333333333333" width="11.533333333333333" height="11.533333333333333" fill="#fcfcfc"/><rect x="138.4" y="80.73333333333333" width="11.533333333333333" height="11.533333333333333" fill="#fcfcfc"/><rect x="46.13333333333333" y="92.26666666666667" width="11.533333333333333" height="11.533333333333333" fill="#fcfcfc"/><rect x="69.2" y="103.8" width="11.533333333333333" height="11.533333333333333" fill="#fcfcfc"/><g transform="translate(69.2,109.57) scale(0.2885) rotate(0)"><path d="M10 5L5 0L0 5L5 10L0 15L5 20L10 15L15 20L20 15L15 10L20 5L15 0L10 5Z" fill="#95a8f3"/></g><rect x="196.06666666666666" y="103.8" width="11.533333333333333" height="11.533333333333333" fill="#fcfcfc"/><g transform="translate(196.07,103.8) scale(0.2885) rotate(0)"><path d="M10 5L5 0L0 5L5 10L0 15L5 20L10 15L15 20L20 15L15 10L20 5L15 0L10 5Z" fill="#ffe7b9"/></g><path d="M 201.83 103.8 A 5.77 5.77 0 0 1  207.60000000000002 109.57 L 201.83 103.8 A 5.77 5.77 0 0 0 207.60000000000002 109.57" fill="#fdf8ed"/><g transform="translate(196.07,109.57) scale(0.2885) rotate(0)"><path d="M10 5L5 0L0 5L5 10L0 15L5 20L10 15L15 20L20 15L15 10L20 5L15 0L10 5Z" fill="#a8b7f5"/></g><rect x="23.066666666666666" y="115.33333333333333" width="11.533333333333333" height="11.533333333333333" fill="#fcfcfc"/><rect x="103.8" y="115.33333333333333" width="11.533333333333333" height="11.533333333333333" fill="#fcfcfc"/><path d="M 103.8 115.33 A 5.77 5.77 0 0 1  109.57 121.1 L 103.8 115.33 A 5.77 5.77 0 0 0 109.57 121.1" fill="#f4f5fb"/><rect x="196.06666666666666" y="115.33333333333333" width="11.533333333333333" height="11.533333333333333" fill="#fcfcfc"/><g transform="translate(196.07,115.33) scale(0.2885) rotate(0)"><path d="M10 5L5 0L0 5L5 10L0 15L5 20L10 15L15 20L20 15L15 10L20 5L15 0L10 5Z" fill="#f5f6fb"/></g><rect x="69.2" y="126.86666666666666" width="11.533333333333333" height="11.533333333333333" fill="#fcfcfc"/><rect x="11.533333333333333" y="138.4" width="11.533333333333333" height="11.533333333333333" fill="#fcfcfc"/><rect x="57.666666666666664" y="138.4" width="11.533333333333333" height="11.533333333333333" fill="#fcfcfc"/><rect x="103.8" y="138.4" width="11.533333333333333" height="11.533333333333333" fill="#fcfcfc"/><rect x="46.13333333333333" y="149.93333333333334" width="11.533333333333333" height="11.533333333333333" fill="#fcfcfc"/><g transform="translate(46.13,155.7) scale(0.2885) rotate(0)"><path d="M10 5L5 0L0 5L5 10L0 15L5 20L10 15L15 20L20 15L15 10L20 5L15 0L10 5Z" fill="#eef1fb"/></g><rect x="69.2" y="149.93333333333334" width="11.533333333333333" height="11.533333333333333" fill="#fcfcfc"/><rect x="126.86666666666666" y="149.93333333333334" width="11.533333333333333" height="11.533333333333333" fill="#fcfcfc"/><rect x="69.2" y="161.46666666666667" width="11.533333333333333" height="11.533333333333333" fill="#fcfcfc"/><rect x="173" y="161.46666666666667" width="11.533333333333333" height="11.533333333333333" fill="#fcfcfc"/><rect x="11.533333333333333" y="173" width="11.533333333333333" height="11.533333333333333" fill="#fcfcfc"/><path d="M 17.3 178.77 A 5.77 5.77 0 0 1  23.07 173 L 17.3 178.77 A 5.77 5.77 0 0 0 23.07 173" fill="#e5e9fa"/><rect x="46.13333333333333" y="173" width="11.533333333333333" height="11.533333333333333" fill="#fcfcfc"/><rect x="115.33333333333333" y="173" width="11.533333333333333" height="11.533333333333333" fill="#fcfcfc"/><rect x="196.06666666666666" y="173" width="11.533333333333333" height="11.533333333333333" fill="#fcfcfc"/><rect x="149.93333333333334" y="184.53333333333333" width="11.533333333333333" height="11.533333333333333" fill="#fcfcfc"/><circle cx="152.815" cy="193.185" r="2.885" fill="#fcfbf8"/><rect x="196.06666666666666" y="184.53333333333333" width="11.533333333333333" height="11.533333333333333" fill="#fcfcfc"/><g transform="translate(201.83,184.53) scale(0.2885) rotate(0)"><path d="M10 5L5 0L0 5L5 10L0 15L5 20L10 15L15 20L20 15L15 10L20 5L15 0L10 5Z" fill="#fef0d5"/></g><path d="M 196.07 196.07000000000002 A 5.77 5.77 0 0 1  201.84 190.3 L 196.07 196.07000000000002 A 5.77 5.77 0 0 0 201.84 190.3" fill="#fdf5e6"/><rect x="126.86666666666666" y="207.6" width="11.533333333333333" height="11.533333333333333" fill="#fcfcfc"/><rect x="0" y="219.13333333333333" width="11.533333333333333" height="11.533333333333333" fill="#fcfcfc"/><rect x="11.533333333333333" y="219.13333333333333" width="11.533333333333333" height="11.533333333333333" fill="#fcfcfc"/><g transform="translate(11.53,224.9) scale(0.2885) rotate(0)"><path d="M10 5L5 0L0 5L5 10L0 15L5 20L10 15L15 20L20 15L15 10L20 5L15 0L10 5Z" fill="#afbdf5"/></g><rect x="196.06666666666666" y="219.13333333333333" width="11.533333333333333" height="11.533333333333333" fill="#fcfcfc"/><rect x="103.8" y="230.66666666666666" width="11.533333333333333" height="11.533333333333333" fill="#fcfcfc"/><rect x="69.2" y="242.2" width="11.533333333333333" height="11.533333333333333" fill="#fcfcfc"/><rect x="34.6" y="253.73333333333332" width="11.533333333333333" height="11.533333333333333" fill="#fcfcfc"/><rect x="138.4" y="253.73333333333332" width="11.533333333333333" height="11.533333333333333" fill="#fcfcfc"/><path d="M 138.4 253.73 A 5.77 5.77 0 0 1  144.17000000000002 259.5 L 138.4 253.73 A 5.77 5.77 0 0 0 144.17000000000002 259.5" fill="#feecc7"/><rect x="184.53333333333333" y="253.73333333333332" width="11.533333333333333" height="11.533333333333333" fill="#fcfcfc"/><circle cx="187.415" cy="256.615" r="2.885" fill="#8ea2f3"/><path d="M 190.3 253.73 A 5.77 5.77 0 0 1  196.07000000000002 259.5 L 190.3 253.73 A 5.77 5.77 0 0 0 196.07000000000002 259.5" fill="#a5b5f5"/><rect x="80.73333333333333" y="265.26666666666665" width="11.533333333333333" height="11.533333333333333" fill="#fcfcfc"/><g transform="translate(86.5,265.27) scale(0.2885) rotate(0)"><path d="M10 5L5 0L0 5L5 10L0 15L5 20L10 15L15 20L20 15L15 10L20 5L15 0L10 5Z" fill="#9eaff4"/></g><rect x="103.8" y="265.26666666666665" width="11.533333333333333" height="11.533333333333333" fill="#fcfcfc"/><rect x="184.53333333333333" y="265.26666666666665" width="11.533333333333333" height="11.533333333333333" fill="#fcfcfc"/><rect x="80.73333333333333" y="276.8" width="11.533333333333333" height="11.533333333333333" fill="#fcfcfc"/><rect x="92.26666666666667" y="276.8" width="11.533333333333333" height="11.533333333333333" fill="#fcfcfc"/><rect x="149.93333333333334" y="276.8" width="11.533333333333333" height="11.533333333333333" fill="#fcfcfc"/><rect x="0" y="288.3333333333333" width="11.533333333333333" height="11.533333333333333" fill="#fcfcfc"/><rect x="57.666666666666664" y="299.8666666666667" width="11.533333333333333" height="11.533333333333333" fill="#fcfcfc"/><rect x="23.066666666666666" y="311.4" width="11.533333333333333" height="11.533333333333333" fill="#fcfcfc"/><circle cx="31.714999999999996" cy="320.055" r="2.885" fill="#a8b7f5"/><rect x="103.8" y="311.4" width="11.533333333333333" height="11.533333333333333" fill="#fcfcfc"/><rect x="126.86666666666666" y="311.4" width="11.533333333333333" height="11.533333333333333" fill="#fcfcfc"/><rect x="184.53333333333333" y="311.4" width="11.533333333333333" height="11.533333333333333" fill="#fcfcfc"/><rect x="196.06666666666666" y="311.4" width="11.533333333333333" height="11.533333333333333" fill="#fcfcfc"/><rect x="57.666666666666664" y="322.93333333333334" width="11.533333333333333" height="11.533333333333333" fill="#fcfcfc"/><g transform="translate(63.43,322.93) scale(0.2885) rotate(0)"><path d="M10 5L5 0L0 5L5 10L0 15L5 20L10 15L15 20L20 15L15 10L20 5L15 0L10 5Z" fill="#fdf5e4"/></g><rect x="126.86666666666666" y="322.93333333333334" width="11.533333333333333" height="11.533333333333333" fill="#fcfcfc"/><rect x="115.33333333333333" y="334.46666666666664" width="11.533333333333333" height="11.533333333333333" fill="#fcfcfc"/><path d="M 115.33 340.23 A 5.77 5.77 0 0 1  121.1 346 L 115.33 340.23 A 5.77 5.77 0 0 0 121.1 346" fill="#fef0d6"/><rect x="196.06666666666666" y="334.46666666666664" width="11.533333333333333" height="11.533333333333333" fill="#fcfcfc"/></g></svg>