<svg xmlns="http://www.w3.org/2000/svg" version="1.1" xmlns:xlink="http://www.w3.org/1999/xlink" xmlns:svgjs="http://svgjs.dev/svgjs" width="1440" height="560" preserveAspectRatio="none" viewBox="0 0 1440 560">
    <g mask="url(&quot;#SvgjsMask1227&quot;)" fill="none">
        <rect width="1440" height="560" x="0" y="0" fill="url(&quot;#SvgjsLinearGradient1228&quot;)"></rect>
        <path d="M-89.71 402.73L-89.71 402.73" stroke="#132e65" stroke-width="1.5"></path>
        <path d="M-89.71 402.73L-49.77 553.53" stroke="#132e65" stroke-width="1.5"></path>
        <path d="M-89.71 402.73L97.26 375.73" stroke="#132e65" stroke-width="1.5"></path>
        <path d="M-49.77 553.53L-49.77 553.53" stroke="#132e65" stroke-width="1.5"></path>
        <path d="M-49.77 553.53L-38.17 646.32" stroke="#132e65" stroke-width="1.5"></path>
        <path d="M-49.77 553.53L66.41 555.2" stroke="#132e65" stroke-width="1.5"></path>
        <path d="M-38.17 646.32L-38.17 646.32" stroke="#132e65" stroke-width="1.5"></path>
        <path d="M-38.17 646.32L80.88 694.7" stroke="#132e65" stroke-width="1.5"></path>
        <path d="M-38.17 646.32L66.41 555.2" stroke="#132e65" stroke-width="1.5"></path>
        <path d="M-38.17 646.32L-89.71 402.73" stroke="#132e65" stroke-width="1.5"></path>
        <path d="M97.26 375.73L97.26 375.73" stroke="#132e65" stroke-width="1.5"></path>
        <path d="M97.26 375.73L198.99 349.94" stroke="#132e65" stroke-width="1.5"></path>
        <path d="M97.26 375.73L195.67 489.63" stroke="#132e65" stroke-width="1.5"></path>
        <path d="M97.26 375.73L66.41 555.2" stroke="#132e65" stroke-width="1.5"></path>
        <path d="M97.26 375.73L-49.77 553.53" stroke="#132e65" stroke-width="1.5"></path>
        <path d="M97.26 375.73L339.78 373.92" stroke="#132e65" stroke-width="1.5"></path>
        <path d="M66.41 555.2L66.41 555.2" stroke="#132e65" stroke-width="1.5"></path>
        <path d="M66.41 555.2L80.88 694.7" stroke="#132e65" stroke-width="1.5"></path>
        <path d="M80.88 694.7L80.88 694.7" stroke="#132e65" stroke-width="1.5"></path>
        <path d="M80.88 694.7L225.09 661.76" stroke="#132e65" stroke-width="1.5"></path>
        <path d="M198.99 349.94L198.99 349.94" stroke="#132e65" stroke-width="1.5"></path>
        <path d="M198.99 349.94L195.67 489.63" stroke="#132e65" stroke-width="1.5"></path>
        <path d="M198.99 349.94L339.78 373.92" stroke="#132e65" stroke-width="1.5"></path>
        <path d="M198.99 349.94L66.41 555.2" stroke="#132e65" stroke-width="1.5"></path>
        <path d="M195.67 489.63L195.67 489.63" stroke="#132e65" stroke-width="1.5"></path>
        <path d="M195.67 489.63L66.41 555.2" stroke="#132e65" stroke-width="1.5"></path>
        <path d="M225.09 661.76L225.09 661.76" stroke="#132e65" stroke-width="1.5"></path>
        <path d="M225.09 661.76L367.76 657.84" stroke="#132e65" stroke-width="1.5"></path>
        <path d="M225.09 661.76L195.67 489.63" stroke="#132e65" stroke-width="1.5"></path>
        <path d="M225.09 661.76L66.41 555.2" stroke="#132e65" stroke-width="1.5"></path>
        <path d="M339.78 373.92L339.78 373.92" stroke="#132e65" stroke-width="1.5"></path>
        <path d="M339.78 373.92L195.67 489.63" stroke="#132e65" stroke-width="1.5"></path>
        <path d="M339.78 373.92L530.5 406.04" stroke="#132e65" stroke-width="1.5"></path>
        <path d="M339.78 373.92L520.88 496.67" stroke="#132e65" stroke-width="1.5"></path>
        <path d="M367.76 657.84L367.76 657.84" stroke="#132e65" stroke-width="1.5"></path>
        <path d="M367.76 657.84L510.63 679.4" stroke="#132e65" stroke-width="1.5"></path>
        <path d="M367.76 657.84L520.88 496.67" stroke="#132e65" stroke-width="1.5"></path>
        <path d="M367.76 657.84L195.67 489.63" stroke="#132e65" stroke-width="1.5"></path>
        <path d="M367.76 657.84L339.78 373.92" stroke="#132e65" stroke-width="1.5"></path>
        <path d="M367.76 657.84L80.88 694.7" stroke="#132e65" stroke-width="1.5"></path>
        <path d="M530.5 406.04L530.5 406.04" stroke="#132e65" stroke-width="1.5"></path>
        <path d="M530.5 406.04L520.88 496.67" stroke="#132e65" stroke-width="1.5"></path>
        <path d="M520.88 496.67L520.88 496.67" stroke="#132e65" stroke-width="1.5"></path>
        <path d="M520.88 496.67L670.27 412.46" stroke="#132e65" stroke-width="1.5"></path>
        <path d="M520.88 496.67L510.63 679.4" stroke="#132e65" stroke-width="1.5"></path>
        <path d="M510.63 679.4L510.63 679.4" stroke="#132e65" stroke-width="1.5"></path>
        <path d="M510.63 679.4L671.48 659.53" stroke="#132e65" stroke-width="1.5"></path>
        <path d="M510.63 679.4L704.33 554.07" stroke="#132e65" stroke-width="1.5"></path>
        <path d="M510.63 679.4L530.5 406.04" stroke="#132e65" stroke-width="1.5"></path>
        <path d="M510.63 679.4L225.09 661.76" stroke="#132e65" stroke-width="1.5"></path>
        <path d="M661.67 224.63L661.67 224.63" stroke="#132e65" stroke-width="1.5"></path>
        <path d="M661.67 224.63L840.9 229.94" stroke="#132e65" stroke-width="1.5"></path>
        <path d="M661.67 224.63L670.27 412.46" stroke="#132e65" stroke-width="1.5"></path>
        <path d="M661.67 224.63L530.5 406.04" stroke="#132e65" stroke-width="1.5"></path>
        <path d="M661.67 224.63L853.48 361.98" stroke="#132e65" stroke-width="1.5"></path>
        <path d="M661.67 224.63L951.75 217.07" stroke="#132e65" stroke-width="1.5"></path>
        <path d="M661.67 224.63L520.88 496.67" stroke="#132e65" stroke-width="1.5"></path>
        <path d="M670.27 412.46L670.27 412.46" stroke="#132e65" stroke-width="1.5"></path>
        <path d="M670.27 412.46L530.5 406.04" stroke="#132e65" stroke-width="1.5"></path>
        <path d="M670.27 412.46L704.33 554.07" stroke="#132e65" stroke-width="1.5"></path>
        <path d="M704.33 554.07L704.33 554.07" stroke="#132e65" stroke-width="1.5"></path>
        <path d="M704.33 554.07L671.48 659.53" stroke="#132e65" stroke-width="1.5"></path>
        <path d="M704.33 554.07L829.25 499.36" stroke="#132e65" stroke-width="1.5"></path>
        <path d="M704.33 554.07L520.88 496.67" stroke="#132e65" stroke-width="1.5"></path>
        <path d="M704.33 554.07L836.88 693.35" stroke="#132e65" stroke-width="1.5"></path>
        <path d="M704.33 554.07L530.5 406.04" stroke="#132e65" stroke-width="1.5"></path>
        <path d="M671.48 659.53L671.48 659.53" stroke="#132e65" stroke-width="1.5"></path>
        <path d="M840.9 229.94L840.9 229.94" stroke="#132e65" stroke-width="1.5"></path>
        <path d="M840.9 229.94L951.75 217.07" stroke="#132e65" stroke-width="1.5"></path>
        <path d="M840.9 229.94L853.48 361.98" stroke="#132e65" stroke-width="1.5"></path>
        <path d="M840.9 229.94L961.57 384.82" stroke="#132e65" stroke-width="1.5"></path>
        <path d="M840.9 229.94L997.65 101.35" stroke="#132e65" stroke-width="1.5"></path>
        <path d="M840.9 229.94L670.27 412.46" stroke="#132e65" stroke-width="1.5"></path>
        <path d="M853.48 361.98L853.48 361.98" stroke="#132e65" stroke-width="1.5"></path>
        <path d="M853.48 361.98L961.57 384.82" stroke="#132e65" stroke-width="1.5"></path>
        <path d="M853.48 361.98L829.25 499.36" stroke="#132e65" stroke-width="1.5"></path>
        <path d="M853.48 361.98L948.53 504.26" stroke="#132e65" stroke-width="1.5"></path>
        <path d="M853.48 361.98L951.75 217.07" stroke="#132e65" stroke-width="1.5"></path>
        <path d="M853.48 361.98L670.27 412.46" stroke="#132e65" stroke-width="1.5"></path>
        <path d="M829.25 499.36L829.25 499.36" stroke="#132e65" stroke-width="1.5"></path>
        <path d="M829.25 499.36L948.53 504.26" stroke="#132e65" stroke-width="1.5"></path>
        <path d="M829.25 499.36L961.57 384.82" stroke="#132e65" stroke-width="1.5"></path>
        <path d="M829.25 499.36L670.27 412.46" stroke="#132e65" stroke-width="1.5"></path>
        <path d="M836.88 693.35L836.88 693.35" stroke="#132e65" stroke-width="1.5"></path>
        <path d="M836.88 693.35L963.83 696.87" stroke="#132e65" stroke-width="1.5"></path>
        <path d="M836.88 693.35L671.48 659.53" stroke="#132e65" stroke-width="1.5"></path>
        <path d="M836.88 693.35L829.25 499.36" stroke="#132e65" stroke-width="1.5"></path>
        <path d="M836.88 693.35L948.53 504.26" stroke="#132e65" stroke-width="1.5"></path>
        <path d="M836.88 693.35L1119.88 661.41" stroke="#132e65" stroke-width="1.5"></path>
        <path d="M957.35 -83.54L957.35 -83.54" stroke="#132e65" stroke-width="1.5"></path>
        <path d="M957.35 -83.54L1126.6 -60.46" stroke="#132e65" stroke-width="1.5"></path>
        <path d="M957.35 -83.54L997.65 101.35" stroke="#132e65" stroke-width="1.5"></path>
        <path d="M957.35 -83.54L1110.28 91.48" stroke="#132e65" stroke-width="1.5"></path>
        <path d="M957.35 -83.54L1254.18 -95.48" stroke="#132e65" stroke-width="1.5"></path>
        <path d="M957.35 -83.54L951.75 217.07" stroke="#132e65" stroke-width="1.5"></path>
        <path d="M997.65 101.35L997.65 101.35" stroke="#132e65" stroke-width="1.5"></path>
        <path d="M997.65 101.35L1110.28 91.48" stroke="#132e65" stroke-width="1.5"></path>
        <path d="M997.65 101.35L951.75 217.07" stroke="#132e65" stroke-width="1.5"></path>
        <path d="M997.65 101.35L1122.7 204.11" stroke="#132e65" stroke-width="1.5"></path>
        <path d="M951.75 217.07L951.75 217.07" stroke="#132e65" stroke-width="1.5"></path>
        <path d="M951.75 217.07L961.57 384.82" stroke="#132e65" stroke-width="1.5"></path>
        <path d="M951.75 217.07L1122.7 204.11" stroke="#132e65" stroke-width="1.5"></path>
        <path d="M961.57 384.82L961.57 384.82" stroke="#132e65" stroke-width="1.5"></path>
        <path d="M961.57 384.82L948.53 504.26" stroke="#132e65" stroke-width="1.5"></path>
        <path d="M961.57 384.82L1153.88 358.12" stroke="#132e65" stroke-width="1.5"></path>
        <path d="M948.53 504.26L948.53 504.26" stroke="#132e65" stroke-width="1.5"></path>
        <path d="M963.83 696.87L963.83 696.87" stroke="#132e65" stroke-width="1.5"></path>
        <path d="M963.83 696.87L1119.88 661.41" stroke="#132e65" stroke-width="1.5"></path>
        <path d="M1126.6 -60.46L1126.6 -60.46" stroke="#132e65" stroke-width="1.5"></path>
        <path d="M1126.6 -60.46L1254.18 -95.48" stroke="#132e65" stroke-width="1.5"></path>
        <path d="M1126.6 -60.46L1110.28 91.48" stroke="#132e65" stroke-width="1.5"></path>
        <path d="M1126.6 -60.46L1253.59 37.8" stroke="#132e65" stroke-width="1.5"></path>
        <path d="M1110.28 91.48L1110.28 91.48" stroke="#132e65" stroke-width="1.5"></path>
        <path d="M1110.28 91.48L1122.7 204.11" stroke="#132e65" stroke-width="1.5"></path>
        <path d="M1110.28 91.48L1253.59 37.8" stroke="#132e65" stroke-width="1.5"></path>
        <path d="M1110.28 91.48L1247.74 236.49" stroke="#132e65" stroke-width="1.5"></path>
        <path d="M1110.28 91.48L951.75 217.07" stroke="#132e65" stroke-width="1.5"></path>
        <path d="M1122.7 204.11L1122.7 204.11" stroke="#132e65" stroke-width="1.5"></path>
        <path d="M1122.7 204.11L1247.74 236.49" stroke="#132e65" stroke-width="1.5"></path>
        <path d="M1122.7 204.11L1153.88 358.12" stroke="#132e65" stroke-width="1.5"></path>
        <path d="M1153.88 358.12L1153.88 358.12" stroke="#132e65" stroke-width="1.5"></path>
        <path d="M1153.88 358.12L1276.37 399.95" stroke="#132e65" stroke-width="1.5"></path>
        <path d="M1153.88 358.12L1247.74 236.49" stroke="#132e65" stroke-width="1.5"></path>
        <path d="M1153.88 358.12L1122.2 517.49" stroke="#132e65" stroke-width="1.5"></path>
        <path d="M1122.2 517.49L1122.2 517.49" stroke="#132e65" stroke-width="1.5"></path>
        <path d="M1122.2 517.49L1119.88 661.41" stroke="#132e65" stroke-width="1.5"></path>
        <path d="M1122.2 517.49L1277.19 536.05" stroke="#132e65" stroke-width="1.5"></path>
        <path d="M1119.88 661.41L1119.88 661.41" stroke="#132e65" stroke-width="1.5"></path>
        <path d="M1119.88 661.41L1262.76 647.75" stroke="#132e65" stroke-width="1.5"></path>
        <path d="M1119.88 661.41L1277.19 536.05" stroke="#132e65" stroke-width="1.5"></path>
        <path d="M1254.18 -95.48L1254.18 -95.48" stroke="#132e65" stroke-width="1.5"></path>
        <path d="M1254.18 -95.48L1253.59 37.8" stroke="#132e65" stroke-width="1.5"></path>
        <path d="M1254.18 -95.48L1402.57 -66.4" stroke="#132e65" stroke-width="1.5"></path>
        <path d="M1253.59 37.8L1253.59 37.8" stroke="#132e65" stroke-width="1.5"></path>
        <path d="M1253.59 37.8L1393.18 71.3" stroke="#132e65" stroke-width="1.5"></path>
        <path d="M1253.59 37.8L1402.57 -66.4" stroke="#132e65" stroke-width="1.5"></path>
        <path d="M1253.59 37.8L1247.74 236.49" stroke="#132e65" stroke-width="1.5"></path>
        <path d="M1247.74 236.49L1247.74 236.49" stroke="#132e65" stroke-width="1.5"></path>
        <path d="M1247.74 236.49L1276.37 399.95" stroke="#132e65" stroke-width="1.5"></path>
        <path d="M1247.74 236.49L1433.5 200.33" stroke="#132e65" stroke-width="1.5"></path>
        <path d="M1276.37 399.95L1276.37 399.95" stroke="#132e65" stroke-width="1.5"></path>
        <path d="M1276.37 399.95L1402.24 411.02" stroke="#132e65" stroke-width="1.5"></path>
        <path d="M1276.37 399.95L1277.19 536.05" stroke="#132e65" stroke-width="1.5"></path>
        <path d="M1276.37 399.95L1414.14 513.15" stroke="#132e65" stroke-width="1.5"></path>
        <path d="M1277.19 536.05L1277.19 536.05" stroke="#132e65" stroke-width="1.5"></path>
        <path d="M1277.19 536.05L1262.76 647.75" stroke="#132e65" stroke-width="1.5"></path>
        <path d="M1277.19 536.05L1414.14 513.15" stroke="#132e65" stroke-width="1.5"></path>
        <path d="M1262.76 647.75L1262.76 647.75" stroke="#132e65" stroke-width="1.5"></path>
        <path d="M1262.76 647.75L1431.24 644.92" stroke="#132e65" stroke-width="1.5"></path>
        <path d="M1262.76 647.75L1122.2 517.49" stroke="#132e65" stroke-width="1.5"></path>
        <path d="M1262.76 647.75L1414.14 513.15" stroke="#132e65" stroke-width="1.5"></path>
        <path d="M1262.76 647.75L1276.37 399.95" stroke="#132e65" stroke-width="1.5"></path>
        <path d="M1402.57 -66.4L1402.57 -66.4" stroke="#132e65" stroke-width="1.5"></path>
        <path d="M1402.57 -66.4L1393.18 71.3" stroke="#132e65" stroke-width="1.5"></path>
        <path d="M1402.57 -66.4L1582.29 -75.26" stroke="#132e65" stroke-width="1.5"></path>
        <path d="M1393.18 71.3L1393.18 71.3" stroke="#132e65" stroke-width="1.5"></path>
        <path d="M1393.18 71.3L1433.5 200.33" stroke="#132e65" stroke-width="1.5"></path>
        <path d="M1433.5 200.33L1433.5 200.33" stroke="#132e65" stroke-width="1.5"></path>
        <path d="M1433.5 200.33L1538.34 200.34" stroke="#132e65" stroke-width="1.5"></path>
        <path d="M1433.5 200.33L1594.86 72.56" stroke="#132e65" stroke-width="1.5"></path>
        <path d="M1402.24 411.02L1402.24 411.02" stroke="#132e65" stroke-width="1.5"></path>
        <path d="M1402.24 411.02L1414.14 513.15" stroke="#132e65" stroke-width="1.5"></path>
        <path d="M1402.24 411.02L1277.19 536.05" stroke="#132e65" stroke-width="1.5"></path>
        <path d="M1402.24 411.02L1588.13 496.7" stroke="#132e65" stroke-width="1.5"></path>
        <path d="M1414.14 513.15L1414.14 513.15" stroke="#132e65" stroke-width="1.5"></path>
        <path d="M1414.14 513.15L1431.24 644.92" stroke="#132e65" stroke-width="1.5"></path>
        <path d="M1414.14 513.15L1588.13 496.7" stroke="#132e65" stroke-width="1.5"></path>
        <path d="M1431.24 644.92L1431.24 644.92" stroke="#132e65" stroke-width="1.5"></path>
        <path d="M1431.24 644.92L1585.6 709.42" stroke="#132e65" stroke-width="1.5"></path>
        <path d="M1582.29 -75.26L1582.29 -75.26" stroke="#132e65" stroke-width="1.5"></path>
        <path d="M1582.29 -75.26L1594.86 72.56" stroke="#132e65" stroke-width="1.5"></path>
        <path d="M1582.29 -75.26L1393.18 71.3" stroke="#132e65" stroke-width="1.5"></path>
        <path d="M1582.29 -75.26L1538.34 200.34" stroke="#132e65" stroke-width="1.5"></path>
        <path d="M1594.86 72.56L1594.86 72.56" stroke="#132e65" stroke-width="1.5"></path>
        <path d="M1594.86 72.56L1538.34 200.34" stroke="#132e65" stroke-width="1.5"></path>
        <path d="M1538.34 200.34L1538.34 200.34" stroke="#132e65" stroke-width="1.5"></path>
        <path d="M1538.34 200.34L1607.72 339.41" stroke="#132e65" stroke-width="1.5"></path>
        <path d="M1607.72 339.41L1607.72 339.41" stroke="#132e65" stroke-width="1.5"></path>
        <path d="M1607.72 339.41L1588.13 496.7" stroke="#132e65" stroke-width="1.5"></path>
        <path d="M1607.72 339.41L1402.24 411.02" stroke="#132e65" stroke-width="1.5"></path>
        <path d="M1607.72 339.41L1433.5 200.33" stroke="#132e65" stroke-width="1.5"></path>
        <path d="M1607.72 339.41L1414.14 513.15" stroke="#132e65" stroke-width="1.5"></path>
        <path d="M1607.72 339.41L1594.86 72.56" stroke="#132e65" stroke-width="1.5"></path>
        <path d="M1588.13 496.7L1588.13 496.7" stroke="#132e65" stroke-width="1.5"></path>
        <path d="M1588.13 496.7L1585.6 709.42" stroke="#132e65" stroke-width="1.5"></path>
        <path d="M1585.6 709.42L1585.6 709.42" stroke="#132e65" stroke-width="1.5"></path>
        <path d="M1585.6 709.42L1414.14 513.15" stroke="#132e65" stroke-width="1.5"></path>
        <path d="M1585.6 709.42L1262.76 647.75" stroke="#132e65" stroke-width="1.5"></path>
        <circle r="5" cx="-89.71" cy="402.73" fill="#132e65"></circle>
        <circle r="5" cx="-49.77" cy="553.53" fill="#132e65"></circle>
        <circle r="5" cx="-38.17" cy="646.32" fill="#132e65"></circle>
        <circle r="5" cx="97.26" cy="375.73" fill="#132e65"></circle>
        <circle r="5" cx="66.41" cy="555.2" fill="#132e65"></circle>
        <circle r="5" cx="80.88" cy="694.7" fill="#132e65"></circle>
        <circle r="5" cx="198.99" cy="349.94" fill="#132e65"></circle>
        <circle r="5" cx="195.67" cy="489.63" fill="#132e65"></circle>
        <circle r="5" cx="225.09" cy="661.76" fill="#132e65"></circle>
        <circle r="5" cx="339.78" cy="373.92" fill="#132e65"></circle>
        <circle r="5" cx="367.76" cy="657.84" fill="#132e65"></circle>
        <circle r="5" cx="530.5" cy="406.04" fill="#132e65"></circle>
        <circle r="5" cx="520.88" cy="496.67" fill="#132e65"></circle>
        <circle r="5" cx="510.63" cy="679.4" fill="#132e65"></circle>
        <circle r="5" cx="661.67" cy="224.63" fill="#132e65"></circle>
        <circle r="5" cx="670.27" cy="412.46" fill="#132e65"></circle>
        <circle r="5" cx="704.33" cy="554.07" fill="#132e65"></circle>
        <circle r="5" cx="671.48" cy="659.53" fill="#132e65"></circle>
        <circle r="5" cx="840.9" cy="229.94" fill="#132e65"></circle>
        <circle r="5" cx="853.48" cy="361.98" fill="#132e65"></circle>
        <circle r="5" cx="829.25" cy="499.36" fill="#132e65"></circle>
        <circle r="5" cx="836.88" cy="693.35" fill="#132e65"></circle>
        <circle r="5" cx="957.35" cy="-83.54" fill="#132e65"></circle>
        <circle r="5" cx="997.65" cy="101.35" fill="#132e65"></circle>
        <circle r="5" cx="951.75" cy="217.07" fill="#132e65"></circle>
        <circle r="5" cx="961.57" cy="384.82" fill="#132e65"></circle>
        <circle r="5" cx="948.53" cy="504.26" fill="#132e65"></circle>
        <circle r="5" cx="963.83" cy="696.87" fill="#132e65"></circle>
        <circle r="5" cx="1126.6" cy="-60.46" fill="#132e65"></circle>
        <circle r="5" cx="1110.28" cy="91.48" fill="#132e65"></circle>
        <circle r="5" cx="1122.7" cy="204.11" fill="#132e65"></circle>
        <circle r="5" cx="1153.88" cy="358.12" fill="#132e65"></circle>
        <circle r="5" cx="1122.2" cy="517.49" fill="#132e65"></circle>
        <circle r="5" cx="1119.88" cy="661.41" fill="#132e65"></circle>
        <circle r="5" cx="1254.18" cy="-95.48" fill="#132e65"></circle>
        <circle r="5" cx="1253.59" cy="37.8" fill="#132e65"></circle>
        <circle r="5" cx="1247.74" cy="236.49" fill="#132e65"></circle>
        <circle r="5" cx="1276.37" cy="399.95" fill="#132e65"></circle>
        <circle r="5" cx="1277.19" cy="536.05" fill="#132e65"></circle>
        <circle r="5" cx="1262.76" cy="647.75" fill="#132e65"></circle>
        <circle r="5" cx="1402.57" cy="-66.4" fill="#132e65"></circle>
        <circle r="5" cx="1393.18" cy="71.3" fill="#132e65"></circle>
        <circle r="5" cx="1433.5" cy="200.33" fill="#132e65"></circle>
        <circle r="5" cx="1402.24" cy="411.02" fill="#132e65"></circle>
        <circle r="5" cx="1414.14" cy="513.15" fill="#132e65"></circle>
        <circle r="5" cx="1431.24" cy="644.92" fill="#132e65"></circle>
        <circle r="5" cx="1582.29" cy="-75.26" fill="#132e65"></circle>
        <circle r="5" cx="1594.86" cy="72.56" fill="#132e65"></circle>
        <circle r="5" cx="1538.34" cy="200.34" fill="#132e65"></circle>
        <circle r="5" cx="1607.72" cy="339.41" fill="#132e65"></circle>
        <circle r="5" cx="1588.13" cy="496.7" fill="#132e65"></circle>
        <circle r="5" cx="1585.6" cy="709.42" fill="#132e65"></circle>
        <path d="M372.2 655.14L372.2 655.14" stroke="hsl(116.39999999999998, 64.3%, 77.2%)" stroke-width="1.5"></path>
        <path d="M372.2 655.14L339.27 543.25" stroke="hsl(116.39999999999998, 64.3%, 77.2%)" stroke-width="1.5"></path>
        <path d="M372.2 655.14L504.49 643.21" stroke="hsl(116.39999999999998, 64.3%, 77.2%)" stroke-width="1.5"></path>
        <path d="M372.2 655.14L196.17 641.13" stroke="hsl(116.39999999999998, 64.3%, 77.2%)" stroke-width="1.5"></path>
        <path d="M372.2 655.14L494.22 500.34" stroke="hsl(116.39999999999998, 64.3%, 77.2%)" stroke-width="1.5"></path>
        <path d="M372.2 655.14L189.79 509.12" stroke="hsl(116.39999999999998, 64.3%, 77.2%)" stroke-width="1.5"></path>
        <path d="M372.2 655.14L648.8 551.17" stroke="hsl(116.39999999999998, 64.3%, 77.2%)" stroke-width="1.5"></path>
        <path d="M550.77 404.56L550.77 404.56" stroke="hsl(116.39999999999998, 64.3%, 77.2%)" stroke-width="1.5"></path>
        <path d="M550.77 404.56L494.22 500.34" stroke="hsl(116.39999999999998, 64.3%, 77.2%)" stroke-width="1.5"></path>
        <path d="M550.77 404.56L683.22 398.77" stroke="hsl(116.39999999999998, 64.3%, 77.2%)" stroke-width="1.5"></path>
        <path d="M550.77 404.56L648.8 551.17" stroke="hsl(116.39999999999998, 64.3%, 77.2%)" stroke-width="1.5"></path>
        <path d="M550.77 404.56L504.49 643.21" stroke="hsl(116.39999999999998, 64.3%, 77.2%)" stroke-width="1.5"></path>
        <path d="M550.77 404.56L339.27 543.25" stroke="hsl(116.39999999999998, 64.3%, 77.2%)" stroke-width="1.5"></path>
        <path d="M494.22 500.34L494.22 500.34" stroke="hsl(116.39999999999998, 64.3%, 77.2%)" stroke-width="1.5"></path>
        <path d="M494.22 500.34L504.49 643.21" stroke="hsl(116.39999999999998, 64.3%, 77.2%)" stroke-width="1.5"></path>
        <path d="M696.25 662.79L696.25 662.79" stroke="hsl(116.39999999999998, 64.3%, 77.2%)" stroke-width="1.5"></path>
        <path d="M696.25 662.79L648.8 551.17" stroke="hsl(116.39999999999998, 64.3%, 77.2%)" stroke-width="1.5"></path>
        <path d="M696.25 662.79L814.96 704.01" stroke="hsl(116.39999999999998, 64.3%, 77.2%)" stroke-width="1.5"></path>
        <path d="M696.25 662.79L504.49 643.21" stroke="hsl(116.39999999999998, 64.3%, 77.2%)" stroke-width="1.5"></path>
        <path d="M696.25 662.79L859.21 506.18" stroke="hsl(116.39999999999998, 64.3%, 77.2%)" stroke-width="1.5"></path>
        <path d="M965.36 679.97L965.36 679.97" stroke="hsl(116.39999999999998, 64.3%, 77.2%)" stroke-width="1.5"></path>
        <path d="M965.36 679.97L981.84 533.41" stroke="hsl(116.39999999999998, 64.3%, 77.2%)" stroke-width="1.5"></path>
        <path d="M965.36 679.97L814.96 704.01" stroke="hsl(116.39999999999998, 64.3%, 77.2%)" stroke-width="1.5"></path>
        <path d="M965.36 679.97L1130.09 673.62" stroke="hsl(116.39999999999998, 64.3%, 77.2%)" stroke-width="1.5"></path>
        <path d="M965.36 679.97L859.21 506.18" stroke="hsl(116.39999999999998, 64.3%, 77.2%)" stroke-width="1.5"></path>
        <path d="M1151.38 401.01L1151.38 401.01" stroke="hsl(116.39999999999998, 64.3%, 77.2%)" stroke-width="1.5"></path>
        <path d="M1151.38 401.01L1117.02 491.71" stroke="hsl(116.39999999999998, 64.3%, 77.2%)" stroke-width="1.5"></path>
        <path d="M1151.38 401.01L1275.41 387.64" stroke="hsl(116.39999999999998, 64.3%, 77.2%)" stroke-width="1.5"></path>
        <path d="M1286.24 191.64L1286.24 191.64" stroke="hsl(116.39999999999998, 64.3%, 77.2%)" stroke-width="1.5"></path>
        <path d="M1286.24 191.64L1409.09 226.85" stroke="hsl(116.39999999999998, 64.3%, 77.2%)" stroke-width="1.5"></path>
        <path d="M1588.88 -71.8L1588.88 -71.8" stroke="hsl(116.39999999999998, 64.3%, 77.2%)" stroke-width="1.5"></path>
        <path d="M1588.88 -71.8L1563.82 40.52" stroke="hsl(116.39999999999998, 64.3%, 77.2%)" stroke-width="1.5"></path>
        <path d="M1588.88 -71.8L1390.9 -40.35" stroke="hsl(116.39999999999998, 64.3%, 77.2%)" stroke-width="1.5"></path>
        <path d="M1603.57 190.79L1603.57 190.79" stroke="hsl(116.39999999999998, 64.3%, 77.2%)" stroke-width="1.5"></path>
        <path d="M1603.57 190.79L1563.82 40.52" stroke="hsl(116.39999999999998, 64.3%, 77.2%)" stroke-width="1.5"></path>
        <path d="M1603.57 190.79L1551.12 373.5" stroke="hsl(116.39999999999998, 64.3%, 77.2%)" stroke-width="1.5"></path>
        <path d="M1603.57 190.79L1409.09 226.85" stroke="hsl(116.39999999999998, 64.3%, 77.2%)" stroke-width="1.5"></path>
        <path d="M1578.99 490.7L1578.99 490.7" stroke="hsl(116.39999999999998, 64.3%, 77.2%)" stroke-width="1.5"></path>
        <path d="M1578.99 490.7L1551.12 373.5" stroke="hsl(116.39999999999998, 64.3%, 77.2%)" stroke-width="1.5"></path>
        <path d="M1578.99 490.7L1436.31 503.43" stroke="hsl(116.39999999999998, 64.3%, 77.2%)" stroke-width="1.5"></path>
        <path d="M1578.99 490.7L1563.98 648.53" stroke="hsl(116.39999999999998, 64.3%, 77.2%)" stroke-width="1.5"></path>
        <path d="M-87.29 518.56L-87.29 518.56" stroke="hsl(116.39999999999998, 64.3%, 77.2%)" stroke-width="1.5"></path>
        <path d="M-87.29 518.56L88.77 515.25" stroke="hsl(116.39999999999998, 64.3%, 77.2%)" stroke-width="1.5"></path>
        <path d="M-87.29 518.56L-78.04 696.88" stroke="hsl(116.39999999999998, 64.3%, 77.2%)" stroke-width="1.5"></path>
        <path d="M-87.29 518.56L45.29 639.65" stroke="hsl(116.39999999999998, 64.3%, 77.2%)" stroke-width="1.5"></path>
        <path d="M-78.04 696.88L-78.04 696.88" stroke="hsl(116.39999999999998, 64.3%, 77.2%)" stroke-width="1.5"></path>
        <path d="M-78.04 696.88L45.29 639.65" stroke="hsl(116.39999999999998, 64.3%, 77.2%)" stroke-width="1.5"></path>
        <path d="M-78.04 696.88L88.77 515.25" stroke="hsl(116.39999999999998, 64.3%, 77.2%)" stroke-width="1.5"></path>
        <path d="M-78.04 696.88L196.17 641.13" stroke="hsl(116.39999999999998, 64.3%, 77.2%)" stroke-width="1.5"></path>
        <path d="M-78.04 696.88L189.79 509.12" stroke="hsl(116.39999999999998, 64.3%, 77.2%)" stroke-width="1.5"></path>
        <path d="M88.77 515.25L88.77 515.25" stroke="hsl(116.39999999999998, 64.3%, 77.2%)" stroke-width="1.5"></path>
        <path d="M88.77 515.25L189.79 509.12" stroke="hsl(116.39999999999998, 64.3%, 77.2%)" stroke-width="1.5"></path>
        <path d="M88.77 515.25L45.29 639.65" stroke="hsl(116.39999999999998, 64.3%, 77.2%)" stroke-width="1.5"></path>
        <path d="M88.77 515.25L196.17 641.13" stroke="hsl(116.39999999999998, 64.3%, 77.2%)" stroke-width="1.5"></path>
        <path d="M45.29 639.65L45.29 639.65" stroke="hsl(116.39999999999998, 64.3%, 77.2%)" stroke-width="1.5"></path>
        <path d="M45.29 639.65L196.17 641.13" stroke="hsl(116.39999999999998, 64.3%, 77.2%)" stroke-width="1.5"></path>
        <path d="M45.29 639.65L189.79 509.12" stroke="hsl(116.39999999999998, 64.3%, 77.2%)" stroke-width="1.5"></path>
        <path d="M45.29 639.65L339.27 543.25" stroke="hsl(116.39999999999998, 64.3%, 77.2%)" stroke-width="1.5"></path>
        <path d="M189.79 509.12L189.79 509.12" stroke="hsl(116.39999999999998, 64.3%, 77.2%)" stroke-width="1.5"></path>
        <path d="M189.79 509.12L196.17 641.13" stroke="hsl(116.39999999999998, 64.3%, 77.2%)" stroke-width="1.5"></path>
        <path d="M196.17 641.13L196.17 641.13" stroke="hsl(116.39999999999998, 64.3%, 77.2%)" stroke-width="1.5"></path>
        <path d="M196.17 641.13L339.27 543.25" stroke="hsl(116.39999999999998, 64.3%, 77.2%)" stroke-width="1.5"></path>
        <path d="M339.27 543.25L339.27 543.25" stroke="hsl(116.39999999999998, 64.3%, 77.2%)" stroke-width="1.5"></path>
        <path d="M339.27 543.25L189.79 509.12" stroke="hsl(116.39999999999998, 64.3%, 77.2%)" stroke-width="1.5"></path>
        <path d="M339.27 543.25L494.22 500.34" stroke="hsl(116.39999999999998, 64.3%, 77.2%)" stroke-width="1.5"></path>
        <path d="M504.49 643.21L504.49 643.21" stroke="hsl(116.39999999999998, 64.3%, 77.2%)" stroke-width="1.5"></path>
        <path d="M504.49 643.21L648.8 551.17" stroke="hsl(116.39999999999998, 64.3%, 77.2%)" stroke-width="1.5"></path>
        <path d="M683.22 398.77L683.22 398.77" stroke="hsl(116.39999999999998, 64.3%, 77.2%)" stroke-width="1.5"></path>
        <path d="M683.22 398.77L648.8 551.17" stroke="hsl(116.39999999999998, 64.3%, 77.2%)" stroke-width="1.5"></path>
        <path d="M648.8 551.17L648.8 551.17" stroke="hsl(116.39999999999998, 64.3%, 77.2%)" stroke-width="1.5"></path>
        <path d="M851.12 359.88L851.12 359.88" stroke="hsl(116.39999999999998, 64.3%, 77.2%)" stroke-width="1.5"></path>
        <path d="M851.12 359.88L989.87 362.49" stroke="hsl(116.39999999999998, 64.3%, 77.2%)" stroke-width="1.5"></path>
        <path d="M851.12 359.88L859.21 506.18" stroke="hsl(116.39999999999998, 64.3%, 77.2%)" stroke-width="1.5"></path>
        <path d="M851.12 359.88L683.22 398.77" stroke="hsl(116.39999999999998, 64.3%, 77.2%)" stroke-width="1.5"></path>
        <path d="M851.12 359.88L981.84 533.41" stroke="hsl(116.39999999999998, 64.3%, 77.2%)" stroke-width="1.5"></path>
        <path d="M859.21 506.18L859.21 506.18" stroke="hsl(116.39999999999998, 64.3%, 77.2%)" stroke-width="1.5"></path>
        <path d="M859.21 506.18L981.84 533.41" stroke="hsl(116.39999999999998, 64.3%, 77.2%)" stroke-width="1.5"></path>
        <path d="M859.21 506.18L989.87 362.49" stroke="hsl(116.39999999999998, 64.3%, 77.2%)" stroke-width="1.5"></path>
        <path d="M859.21 506.18L814.96 704.01" stroke="hsl(116.39999999999998, 64.3%, 77.2%)" stroke-width="1.5"></path>
        <path d="M814.96 704.01L814.96 704.01" stroke="hsl(116.39999999999998, 64.3%, 77.2%)" stroke-width="1.5"></path>
        <path d="M814.96 704.01L648.8 551.17" stroke="hsl(116.39999999999998, 64.3%, 77.2%)" stroke-width="1.5"></path>
        <path d="M814.96 704.01L981.84 533.41" stroke="hsl(116.39999999999998, 64.3%, 77.2%)" stroke-width="1.5"></path>
        <path d="M814.96 704.01L504.49 643.21" stroke="hsl(116.39999999999998, 64.3%, 77.2%)" stroke-width="1.5"></path>
        <path d="M989.87 362.49L989.87 362.49" stroke="hsl(116.39999999999998, 64.3%, 77.2%)" stroke-width="1.5"></path>
        <path d="M989.87 362.49L1151.38 401.01" stroke="hsl(116.39999999999998, 64.3%, 77.2%)" stroke-width="1.5"></path>
        <path d="M981.84 533.41L981.84 533.41" stroke="hsl(116.39999999999998, 64.3%, 77.2%)" stroke-width="1.5"></path>
        <path d="M981.84 533.41L1117.02 491.71" stroke="hsl(116.39999999999998, 64.3%, 77.2%)" stroke-width="1.5"></path>
        <path d="M981.84 533.41L989.87 362.49" stroke="hsl(116.39999999999998, 64.3%, 77.2%)" stroke-width="1.5"></path>
        <path d="M1160.52 -103.87L1160.52 -103.87" stroke="hsl(116.39999999999998, 64.3%, 77.2%)" stroke-width="1.5"></path>
        <path d="M1160.52 -103.87L1310.25 -83.91" stroke="hsl(116.39999999999998, 64.3%, 77.2%)" stroke-width="1.5"></path>
        <path d="M1160.52 -103.87L1259.3 42.32" stroke="hsl(116.39999999999998, 64.3%, 77.2%)" stroke-width="1.5"></path>
        <path d="M1160.52 -103.87L1390.9 -40.35" stroke="hsl(116.39999999999998, 64.3%, 77.2%)" stroke-width="1.5"></path>
        <path d="M1160.52 -103.87L1397.23 64.9" stroke="hsl(116.39999999999998, 64.3%, 77.2%)" stroke-width="1.5"></path>
        <path d="M1092.95 215.85L1092.95 215.85" stroke="hsl(116.39999999999998, 64.3%, 77.2%)" stroke-width="1.5"></path>
        <path d="M1092.95 215.85L989.87 362.49" stroke="hsl(116.39999999999998, 64.3%, 77.2%)" stroke-width="1.5"></path>
        <path d="M1092.95 215.85L1151.38 401.01" stroke="hsl(116.39999999999998, 64.3%, 77.2%)" stroke-width="1.5"></path>
        <path d="M1092.95 215.85L1286.24 191.64" stroke="hsl(116.39999999999998, 64.3%, 77.2%)" stroke-width="1.5"></path>
        <path d="M1117.02 491.71L1117.02 491.71" stroke="hsl(116.39999999999998, 64.3%, 77.2%)" stroke-width="1.5"></path>
        <path d="M1117.02 491.71L989.87 362.49" stroke="hsl(116.39999999999998, 64.3%, 77.2%)" stroke-width="1.5"></path>
        <path d="M1130.09 673.62L1130.09 673.62" stroke="hsl(116.39999999999998, 64.3%, 77.2%)" stroke-width="1.5"></path>
        <path d="M1130.09 673.62L1275.44 637.76" stroke="hsl(116.39999999999998, 64.3%, 77.2%)" stroke-width="1.5"></path>
        <path d="M1130.09 673.62L1117.02 491.71" stroke="hsl(116.39999999999998, 64.3%, 77.2%)" stroke-width="1.5"></path>
        <path d="M1310.25 -83.91L1310.25 -83.91" stroke="hsl(116.39999999999998, 64.3%, 77.2%)" stroke-width="1.5"></path>
        <path d="M1310.25 -83.91L1390.9 -40.35" stroke="hsl(116.39999999999998, 64.3%, 77.2%)" stroke-width="1.5"></path>
        <path d="M1310.25 -83.91L1259.3 42.32" stroke="hsl(116.39999999999998, 64.3%, 77.2%)" stroke-width="1.5"></path>
        <path d="M1310.25 -83.91L1397.23 64.9" stroke="hsl(116.39999999999998, 64.3%, 77.2%)" stroke-width="1.5"></path>
        <path d="M1259.3 42.32L1259.3 42.32" stroke="hsl(116.39999999999998, 64.3%, 77.2%)" stroke-width="1.5"></path>
        <path d="M1259.3 42.32L1397.23 64.9" stroke="hsl(116.39999999999998, 64.3%, 77.2%)" stroke-width="1.5"></path>
        <path d="M1259.3 42.32L1286.24 191.64" stroke="hsl(116.39999999999998, 64.3%, 77.2%)" stroke-width="1.5"></path>
        <path d="M1259.3 42.32L1390.9 -40.35" stroke="hsl(116.39999999999998, 64.3%, 77.2%)" stroke-width="1.5"></path>
        <path d="M1259.3 42.32L1409.09 226.85" stroke="hsl(116.39999999999998, 64.3%, 77.2%)" stroke-width="1.5"></path>
        <path d="M1275.41 387.64L1275.41 387.64" stroke="hsl(116.39999999999998, 64.3%, 77.2%)" stroke-width="1.5"></path>
        <path d="M1275.41 387.64L1393.05 363.65" stroke="hsl(116.39999999999998, 64.3%, 77.2%)" stroke-width="1.5"></path>
        <path d="M1299.52 528.81L1299.52 528.81" stroke="hsl(116.39999999999998, 64.3%, 77.2%)" stroke-width="1.5"></path>
        <path d="M1299.52 528.81L1275.44 637.76" stroke="hsl(116.39999999999998, 64.3%, 77.2%)" stroke-width="1.5"></path>
        <path d="M1299.52 528.81L1436.31 503.43" stroke="hsl(116.39999999999998, 64.3%, 77.2%)" stroke-width="1.5"></path>
        <path d="M1299.52 528.81L1275.41 387.64" stroke="hsl(116.39999999999998, 64.3%, 77.2%)" stroke-width="1.5"></path>
        <path d="M1299.52 528.81L1437.87 647.72" stroke="hsl(116.39999999999998, 64.3%, 77.2%)" stroke-width="1.5"></path>
        <path d="M1299.52 528.81L1117.02 491.71" stroke="hsl(116.39999999999998, 64.3%, 77.2%)" stroke-width="1.5"></path>
        <path d="M1299.52 528.81L1393.05 363.65" stroke="hsl(116.39999999999998, 64.3%, 77.2%)" stroke-width="1.5"></path>
        <path d="M1275.44 637.76L1275.44 637.76" stroke="hsl(116.39999999999998, 64.3%, 77.2%)" stroke-width="1.5"></path>
        <path d="M1390.9 -40.35L1390.9 -40.35" stroke="hsl(116.39999999999998, 64.3%, 77.2%)" stroke-width="1.5"></path>
        <path d="M1390.9 -40.35L1397.23 64.9" stroke="hsl(116.39999999999998, 64.3%, 77.2%)" stroke-width="1.5"></path>
        <path d="M1390.9 -40.35L1563.82 40.52" stroke="hsl(116.39999999999998, 64.3%, 77.2%)" stroke-width="1.5"></path>
        <path d="M1397.23 64.9L1397.23 64.9" stroke="hsl(116.39999999999998, 64.3%, 77.2%)" stroke-width="1.5"></path>
        <path d="M1397.23 64.9L1409.09 226.85" stroke="hsl(116.39999999999998, 64.3%, 77.2%)" stroke-width="1.5"></path>
        <path d="M1397.23 64.9L1563.82 40.52" stroke="hsl(116.39999999999998, 64.3%, 77.2%)" stroke-width="1.5"></path>
        <path d="M1397.23 64.9L1286.24 191.64" stroke="hsl(116.39999999999998, 64.3%, 77.2%)" stroke-width="1.5"></path>
        <path d="M1409.09 226.85L1409.09 226.85" stroke="hsl(116.39999999999998, 64.3%, 77.2%)" stroke-width="1.5"></path>
        <path d="M1409.09 226.85L1393.05 363.65" stroke="hsl(116.39999999999998, 64.3%, 77.2%)" stroke-width="1.5"></path>
        <path d="M1393.05 363.65L1393.05 363.65" stroke="hsl(116.39999999999998, 64.3%, 77.2%)" stroke-width="1.5"></path>
        <path d="M1393.05 363.65L1436.31 503.43" stroke="hsl(116.39999999999998, 64.3%, 77.2%)" stroke-width="1.5"></path>
        <path d="M1393.05 363.65L1551.12 373.5" stroke="hsl(116.39999999999998, 64.3%, 77.2%)" stroke-width="1.5"></path>
        <path d="M1436.31 503.43L1436.31 503.43" stroke="hsl(116.39999999999998, 64.3%, 77.2%)" stroke-width="1.5"></path>
        <path d="M1436.31 503.43L1437.87 647.72" stroke="hsl(116.39999999999998, 64.3%, 77.2%)" stroke-width="1.5"></path>
        <path d="M1437.87 647.72L1437.87 647.72" stroke="hsl(116.39999999999998, 64.3%, 77.2%)" stroke-width="1.5"></path>
        <path d="M1437.87 647.72L1563.98 648.53" stroke="hsl(116.39999999999998, 64.3%, 77.2%)" stroke-width="1.5"></path>
        <path d="M1437.87 647.72L1275.44 637.76" stroke="hsl(116.39999999999998, 64.3%, 77.2%)" stroke-width="1.5"></path>
        <path d="M1437.87 647.72L1578.99 490.7" stroke="hsl(116.39999999999998, 64.3%, 77.2%)" stroke-width="1.5"></path>
        <path d="M1437.87 647.72L1393.05 363.65" stroke="hsl(116.39999999999998, 64.3%, 77.2%)" stroke-width="1.5"></path>
        <path d="M1563.82 40.52L1563.82 40.52" stroke="hsl(116.39999999999998, 64.3%, 77.2%)" stroke-width="1.5"></path>
        <path d="M1551.12 373.5L1551.12 373.5" stroke="hsl(116.39999999999998, 64.3%, 77.2%)" stroke-width="1.5"></path>
        <path d="M1551.12 373.5L1436.31 503.43" stroke="hsl(116.39999999999998, 64.3%, 77.2%)" stroke-width="1.5"></path>
        <path d="M1563.98 648.53L1563.98 648.53" stroke="hsl(116.39999999999998, 64.3%, 77.2%)" stroke-width="1.5"></path>
        <path d="M1563.98 648.53L1436.31 503.43" stroke="hsl(116.39999999999998, 64.3%, 77.2%)" stroke-width="1.5"></path>
        <path d="M1563.98 648.53L1551.12 373.5" stroke="hsl(116.39999999999998, 64.3%, 77.2%)" stroke-width="1.5"></path>
        <path d="M1563.98 648.53L1275.44 637.76" stroke="hsl(116.39999999999998, 64.3%, 77.2%)" stroke-width="1.5"></path>
        <circle r="25" cx="372.2" cy="655.14" fill="url(&quot;#SvgjsRadialGradient1229&quot;)"></circle>
        <circle r="25" cx="550.77" cy="404.56" fill="url(&quot;#SvgjsRadialGradient1229&quot;)"></circle>
        <circle r="25" cx="494.22" cy="500.34" fill="url(&quot;#SvgjsRadialGradient1229&quot;)"></circle>
        <circle r="25" cx="696.25" cy="662.79" fill="url(&quot;#SvgjsRadialGradient1229&quot;)"></circle>
        <circle r="25" cx="965.36" cy="679.97" fill="url(&quot;#SvgjsRadialGradient1229&quot;)"></circle>
        <circle r="25" cx="1151.38" cy="401.01" fill="url(&quot;#SvgjsRadialGradient1229&quot;)"></circle>
        <circle r="25" cx="1286.24" cy="191.64" fill="url(&quot;#SvgjsRadialGradient1229&quot;)"></circle>
        <circle r="25" cx="1588.88" cy="-71.8" fill="url(&quot;#SvgjsRadialGradient1229&quot;)"></circle>
        <circle r="25" cx="1603.57" cy="190.79" fill="url(&quot;#SvgjsRadialGradient1229&quot;)"></circle>
        <circle r="25" cx="1578.99" cy="490.7" fill="url(&quot;#SvgjsRadialGradient1229&quot;)"></circle>
        <circle r="5" cx="-87.29" cy="518.56" fill="#aeedaa"></circle>
        <circle r="5" cx="-78.04" cy="696.88" fill="#aeedaa"></circle>
        <circle r="5" cx="88.77" cy="515.25" fill="#aeedaa"></circle>
        <circle r="5" cx="45.29" cy="639.65" fill="#aeedaa"></circle>
        <circle r="5" cx="189.79" cy="509.12" fill="#aeedaa"></circle>
        <circle r="5" cx="196.17" cy="641.13" fill="#aeedaa"></circle>
        <circle r="5" cx="339.27" cy="543.25" fill="#aeedaa"></circle>
        <circle r="5" cx="504.49" cy="643.21" fill="#aeedaa"></circle>
        <circle r="5" cx="683.22" cy="398.77" fill="#aeedaa"></circle>
        <circle r="5" cx="648.8" cy="551.17" fill="#aeedaa"></circle>
        <circle r="5" cx="851.12" cy="359.88" fill="#aeedaa"></circle>
        <circle r="5" cx="859.21" cy="506.18" fill="#aeedaa"></circle>
        <circle r="5" cx="814.96" cy="704.01" fill="#aeedaa"></circle>
        <circle r="5" cx="989.87" cy="362.49" fill="#aeedaa"></circle>
        <circle r="5" cx="981.84" cy="533.41" fill="#aeedaa"></circle>
        <circle r="5" cx="1160.52" cy="-103.87" fill="#aeedaa"></circle>
        <circle r="5" cx="1092.95" cy="215.85" fill="#aeedaa"></circle>
        <circle r="5" cx="1117.02" cy="491.71" fill="#aeedaa"></circle>
        <circle r="5" cx="1130.09" cy="673.62" fill="#aeedaa"></circle>
        <circle r="5" cx="1310.25" cy="-83.91" fill="#aeedaa"></circle>
        <circle r="5" cx="1259.3" cy="42.32" fill="#aeedaa"></circle>
        <circle r="5" cx="1275.41" cy="387.64" fill="#aeedaa"></circle>
        <circle r="5" cx="1299.52" cy="528.81" fill="#aeedaa"></circle>
        <circle r="5" cx="1275.44" cy="637.76" fill="#aeedaa"></circle>
        <circle r="5" cx="1390.9" cy="-40.35" fill="#aeedaa"></circle>
        <circle r="5" cx="1397.23" cy="64.9" fill="#aeedaa"></circle>
        <circle r="5" cx="1409.09" cy="226.85" fill="#aeedaa"></circle>
        <circle r="5" cx="1393.05" cy="363.65" fill="#aeedaa"></circle>
        <circle r="5" cx="1436.31" cy="503.43" fill="#aeedaa"></circle>
        <circle r="5" cx="1437.87" cy="647.72" fill="#aeedaa"></circle>
        <circle r="5" cx="1563.82" cy="40.52" fill="#aeedaa"></circle>
        <circle r="5" cx="1551.12" cy="373.5" fill="#aeedaa"></circle>
        <circle r="5" cx="1563.98" cy="648.53" fill="#aeedaa"></circle>
    </g>
    <defs>
        <mask id="SvgjsMask1227">
            <rect width="1440" height="560" fill="#ffffff"></rect>
        </mask>
        <linearGradient x1="50%" y1="0%" x2="50%" y2="100%" gradientUnits="userSpaceOnUse" id="SvgjsLinearGradient1228">
            <stop stop-color="rgba(255, 255, 255, 1)" offset="0"></stop>
            <stop stop-color="rgba(6, 90, 122, 1)" offset="1"></stop>
        </linearGradient>
        <radialGradient id="SvgjsRadialGradient1229">
            <stop stop-color="#ffffff" offset="0.1"></stop>
            <stop stop-color="rgba(93, 218, 85, 1)" offset="0.2"></stop>
            <stop stop-color="rgba(93, 218, 85, 0)" offset="1"></stop>
        </radialGradient>
    </defs>
</svg>