<svg xmlns="http://www.w3.org/2000/svg" version="1.1" xmlns:xlink="http://www.w3.org/1999/xlink" xmlns:svgjs="http://svgjs.dev/svgjs" width="1000" height="200" preserveAspectRatio="none" viewBox="0 0 1000 200">
    <g mask="url(&quot;#SvgjsMask1092&quot;)" fill="none">
        <path d="M 0,14 C 28.6,18 85.8,35.2 143,34 C 200.2,32.8 228.8,3.6 286,8 C 343.2,12.4 371.8,51.6 429,56 C 486.2,60.4 514.8,31 572,30 C 629.2,29 657.8,51.8 715,51 C 772.2,50.2 801,29.2 858,26 C 915,22.8 971.6,33.2 1000,35L1000 200L0 200z" fill="rgba(5, 54, 137, 1)"></path>
        <path d="M 0,83 C 11.8,87.6 35.4,103 59,106 C 82.6,109 94.4,94 118,98 C 141.6,102 153.4,130.4 177,126 C 200.6,121.6 212.4,81 236,76 C 259.6,71 271.4,97 295,101 C 318.6,105 330.4,91.6 354,96 C 377.6,100.4 389.4,128.8 413,123 C 436.6,117.2 448.4,70.6 472,67 C 495.6,63.4 507.4,98.8 531,105 C 554.6,111.2 566.4,94 590,98 C 613.6,102 625.4,131.6 649,125 C 672.6,118.4 684.4,68.6 708,65 C 731.6,61.4 743.4,101 767,107 C 790.6,113 802.4,94.6 826,95 C 849.6,95.4 861.4,112.4 885,109 C 908.6,105.6 921,78.4 944,78 C 967,77.6 988.8,101.2 1000,107L1000 200L0 200z" fill="rgba(99, 145, 184, 1)"></path>
        <path d="M 0,167 C 20,165.8 60,157.6 100,161 C 140,164.4 160,184 200,184 C 240,184 260,158 300,161 C 340,164 360,204.8 400,199 C 440,193.2 460,132 500,132 C 540,132 560,193.8 600,199 C 640,204.2 660,159.6 700,158 C 740,156.4 760,195.4 800,191 C 840,186.6 860,137.2 900,136 C 940,134.8 980,175.2 1000,185L1000 200L0 200z" fill="rgba(235, 239, 205, 1)"></path>
    </g>
    <defs>
        <mask id="SvgjsMask1092">
            <rect width="1000" height="200" fill="#ffffff"></rect>
        </mask>
    </defs>
</svg>